<svg xmlns="http://www.w3.org/2000/svg" xmlns:xlink="http://www.w3.org/1999/xlink" viewBox="0 0 183.09 50.32"><defs><style>.cls-1{fill:none;}.cls-2{isolation:isolate;}.cls-3{clip-path:url(#clip-path);}.cls-4{fill:#83c7ae;}.cls-5{fill:#71bfe8;}.cls-6{fill:#84ccd9;}.cls-7{fill:#37b6a8;}.cls-8{fill:#d780b0;}.cls-9{fill:#00689a;}.cls-10{fill:#00966f;}.cls-11{fill:#00aba4;}.cls-12{fill:#0880b9;}.cls-13{fill:#00a472;}.cls-14{fill:#60bdac;}.cls-15{opacity:0.65;mix-blend-mode:overlay;fill:url(#linear-gradient);}</style><clipPath id="clip-path"><rect class="cls-1" x="0.16" y="2.58" width="40.61" height="40.61"/></clipPath><linearGradient id="linear-gradient" x1="20.07" y1="-10.46" x2="20.85" y2="54.94" gradientUnits="userSpaceOnUse"><stop offset="0" stop-color="#f4e858"/><stop offset="1" stop-color="#164a89"/></linearGradient></defs><title>logo</title><g class="cls-2"><g id="Layer_2" data-name="Layer 2"><g id="landing_page" data-name="landing page"><path d="M72.19,24.07V41.26c0,6-4.69,9.06-10.46,9.06a17,17,0,0,1-7.65-1.81.62.62,0,0,1-.37-.89l1-2.55a.59.59,0,0,1,.92-.37,11.2,11.2,0,0,0,5.51,1.52c3.29,0,5.66-1.59,5.66-4.25V38.6a7.71,7.71,0,0,1-6.28,3.18c-4.66,0-8.88-3.44-8.88-9.39S55.89,23,60.25,23a8.67,8.67,0,0,1,6.62,3.22l.26-2.11c.07-.44.26-.7.7-.7h3.66A.64.64,0,0,1,72.19,24.07ZM66.72,32.5c0-3.47-2.29-5.36-5-5.36s-4.84,1.78-4.84,5.21S59,37.6,61.77,37.6C64.39,37.6,66.72,36,66.72,32.5Z"/><path d="M96.86,24.11V42a.64.64,0,0,1-.7.71H92.57c-.44,0-.59-.26-.7-.71l-.3-2.36A8.11,8.11,0,0,1,85,43.15c-4.73,0-9-3.7-9-10.09s4.33-10.13,8.91-10.13a8.92,8.92,0,0,1,6.73,3.29l.26-2.11c.07-.44.26-.7.7-.7h3.59A.64.64,0,0,1,96.86,24.11Zm-5.18,9.06c0-3.77-2.47-5.84-5.36-5.84s-5.21,2-5.21,5.73,2.4,5.73,5.29,5.73C89.13,38.79,91.68,37,91.68,33.17Z"/><path d="M115.68,24.18l-2.44,4.07a.65.65,0,0,1-.55.33,9.72,9.72,0,0,0-1.22-.15c-2.67,0-3.89,1.63-4.26,4.81V42a.64.64,0,0,1-.7.71h-4a.65.65,0,0,1-.71-.71l0-17.89a.64.64,0,0,1,.7-.7h3.77c.44,0,.59.26.7.7l.26,2.18A6.71,6.71,0,0,1,112.87,23a13.34,13.34,0,0,1,2.44.22C115.76,23.37,116,23.7,115.68,24.18Z"/><path d="M137.09,16.57V42a.64.64,0,0,1-.7.71h-3.55c-.44,0-.63-.26-.7-.71l-.34-2.47a8.08,8.08,0,0,1-6.65,3.62c-4.73,0-9-3.7-9-10.09s4.36-10.13,8.83-10.13a9.1,9.1,0,0,1,6.7,3.21V16.57a.64.64,0,0,1,.7-.71h4A.64.64,0,0,1,137.09,16.57Zm-5.25,16.6c0-3.77-2.48-5.84-5.36-5.84s-5.21,2-5.21,5.73,2.4,5.73,5.28,5.73S131.84,37,131.84,33.17Z"/><path d="M160,33a7.38,7.38,0,0,1,0,.82.71.71,0,0,1-.78.66H145.82c.48,3,2.4,4.62,5.69,4.62a6,6,0,0,0,5.18-2.47.64.64,0,0,1,1,0l1.7,1.66c.41.45.18.85-.11,1.15a10.3,10.3,0,0,1-8.21,3.73c-6.06,0-10.24-4.1-10.24-10,0-5.55,3.7-10.2,9.69-10.2C156.06,22.93,160,27,160,33Zm-14.27-1.81h9.65a4.44,4.44,0,0,0-4.7-4.25A4.66,4.66,0,0,0,145.75,31.17Z"/><path d="M183.09,32.17V42a.64.64,0,0,1-.7.71h-4a.64.64,0,0,1-.7-.71V32.17c0-2.74-1.41-4.36-3.89-4.36s-4.47,1.59-4.62,5.5V42a.64.64,0,0,1-.7.71h-4a.64.64,0,0,1-.7-.71V24.11a.64.64,0,0,1,.7-.7h3.77c.45,0,.59.26.7.7l.23,1.85a8.32,8.32,0,0,1,6.43-3C180,23,183.09,26.18,183.09,32.17Z"/><g class="cls-3"><rect class="cls-1" y="4.64" width="40.36" height="40.36"/><rect class="cls-4" x="16.5" y="20.15" width="43.56" height="5.08" transform="translate(60.98 -15.59) rotate(90)"/><rect class="cls-5" x="11.42" y="20.15" width="43.56" height="5.08" transform="translate(55.89 -10.5) rotate(90)"/><rect class="cls-6" x="0.82" y="20.59" width="44.43" height="5.08" transform="translate(46.16 0.1) rotate(90)"/><rect class="cls-7" x="10.38" y="11.02" width="25.3" height="5.08" transform="translate(36.59 -9.47) rotate(90)"/><rect class="cls-8" x="20.54" y="26.16" width="4.99" height="5.08" transform="translate(51.74 5.67) rotate(90)"/><rect class="cls-9" x="-3.19" y="28.58" width="32.11" height="5.08" transform="translate(43.99 18.26) rotate(90)"/><rect class="cls-10" x="-14.06" y="20.09" width="43.68" height="5.08" transform="translate(30.42 14.85) rotate(90)"/><rect class="cls-11" x="-19.08" y="20.15" width="43.56" height="5.08" transform="translate(25.39 19.99) rotate(90)"/><rect class="cls-12" x="2.86" y="7.53" width="20.02" height="5.08" transform="translate(22.94 -2.79) rotate(90)"/><rect class="cls-8" x="10.36" y="17.6" width="5.02" height="5.08" transform="translate(33 7.27) rotate(90)"/><rect class="cls-13" x="4.53" y="21.05" width="47.18" height="5.08" transform="translate(51.7 -4.53) rotate(90)"/><rect class="cls-14" x="-3.83" y="20.15" width="43.56" height="5.08" transform="translate(40.64 4.75) rotate(90)"/></g><rect class="cls-15" x="0.16" y="2.58" width="40.61" height="40.61"/></g></g></g></svg>